<svg width="31" height="34" viewBox="0 0 31 34" fill="none" xmlns="http://www.w3.org/2000/svg">
<path d="M0.9375 25.5938L6.89062 23.4844C6.89062 24.2656 7.10938 24.9531 7.54688 25.5469C7.98438 26.1406 8.42188 26.5312 8.85938 26.7188L9.51562 27.0469V33.1406C6.85938 33.1406 4.59375 31.9844 2.71875 29.6719C1.5625 28.2031 0.96875 26.8438 0.9375 25.5938ZM1.3125 9.1875C1.3125 5.75 2.78125 3.17188 5.71875 1.45312C7.0625 0.640625 8.32812 0.21875 9.51562 0.1875V6.375C8.73438 6.59375 8.15625 7.15625 7.78125 8.0625C7.65625 8.34375 7.59375 8.64062 7.59375 8.95312C7.59375 10.2344 8.54688 11.3281 10.4531 12.2344C10.8594 12.4219 11.5156 12.7031 12.4219 13.0781C13.9219 13.6719 14.9844 14.1562 15.6094 14.5312C18.1406 16.0312 19.8281 17.5625 20.6719 19.125C21.2969 20.3438 21.6094 21.7031 21.6094 23.2031C21.6094 26.0469 20.5312 28.4844 18.375 30.5156C16.5312 32.2656 14.4375 33.1406 12.0938 33.1406V27.0469C13.3125 26.8906 14.1719 26.25 14.6719 25.125C14.8906 24.625 15 24.0781 15 23.4844C15 21.8906 13.8125 20.5781 11.4375 19.5469C11 19.3594 10.3125 19.0938 9.375 18.75C8.28125 18.375 7.51562 18.0781 7.07812 17.8594C4.39062 16.5781 2.67188 14.9219 1.92188 12.8906C1.51562 11.7969 1.3125 10.5625 1.3125 9.1875ZM12.0938 6.375V0.1875C14.7188 0.1875 16.9219 1.29688 18.7031 3.51562C19.7344 4.82812 20.2656 6.01562 20.2969 7.07812L14.2031 9.09375C14.2031 7.78125 13.5625 6.89062 12.2812 6.42188C12.1562 6.39062 12.0938 6.375 12.0938 6.375ZM23.9531 29.7188C23.9531 28.3125 24.5625 27.2656 25.7812 26.5781C26.3125 26.2969 26.875 26.1562 27.4688 26.1562C28.875 26.1562 29.9062 26.7656 30.5625 27.9844C30.8438 28.5156 30.9844 29.0938 30.9844 29.7188C30.9844 31.1562 30.3594 32.1875 29.1094 32.8125C28.5781 33.0938 28.0312 33.2344 27.4688 33.2344C26.0312 33.2344 25 32.6094 24.375 31.3594C24.0938 30.8281 23.9531 30.2812 23.9531 29.7188Z" fill="#2563EB"/>
</svg>
