<svg width="20" height="20" viewBox="0 0 20 20" fill="none" xmlns="http://www.w3.org/2000/svg">
<g clip-path="url(#clip0_40_121)">
<path d="M10.0033 4.86523C7.16745 4.86523 4.87161 7.16357 4.87161 9.9969C4.87161 12.8327 7.16995 15.1286 10.0033 15.1286C12.8391 15.1286 15.1349 12.8302 15.1349 9.9969C15.1349 7.16107 12.8366 4.86523 10.0033 4.86523ZM10.0033 13.3277C8.16245 13.3277 6.67245 11.8369 6.67245 9.9969C6.67245 8.1569 8.16328 6.66607 10.0033 6.66607C11.8433 6.66607 13.3341 8.1569 13.3341 9.9969C13.3349 11.8369 11.8441 13.3277 10.0033 13.3277Z" fill="white"/>
<path d="M14.1233 0.0637988C12.2833 -0.0220346 7.72581 -0.0178679 5.88414 0.0637988C4.26581 0.139632 2.83831 0.530465 1.68748 1.6813C-0.235858 3.60463 0.00997576 6.1963 0.00997576 9.99713C0.00997576 13.8871 -0.206691 16.4188 1.68748 18.313C3.61831 20.243 6.24748 19.9905 10.0033 19.9905C13.8566 19.9905 15.1866 19.993 16.5491 19.4655C18.4016 18.7463 19.8 17.0905 19.9366 14.1163C20.0233 12.2755 20.0183 7.7188 19.9366 5.87713C19.7716 2.3663 17.8875 0.237132 14.1233 0.0637988V0.0637988ZM17.0358 17.0405C15.775 18.3013 14.0258 18.1888 9.97914 18.1888C5.81248 18.1888 4.14164 18.2505 2.92248 17.028C1.51831 15.6305 1.77248 13.3863 1.77248 9.9838C1.77248 5.37963 1.29998 2.0638 5.92081 1.82713C6.98248 1.78963 7.29498 1.77713 9.96748 1.77713L10.005 1.80213C14.4458 1.80213 17.93 1.33713 18.1391 5.95713C18.1866 7.0113 18.1975 7.32797 18.1975 9.9963C18.1966 14.1146 18.275 15.7955 17.0358 17.0405V17.0405Z" fill="white"/>
<path d="M15.3383 5.86171C16.0006 5.86171 16.5375 5.32482 16.5375 4.66254C16.5375 4.00026 16.0006 3.46338 15.3383 3.46338C14.676 3.46338 14.1392 4.00026 14.1392 4.66254C14.1392 5.32482 14.676 5.86171 15.3383 5.86171Z" fill="white"/>
</g>
<defs>
<clipPath id="clip0_40_121">
<rect width="20" height="20" fill="white"/>
</clipPath>
</defs>
</svg>
