<svg width="260" height="280" viewBox="0 0 260 280" fill="none" xmlns="http://www.w3.org/2000/svg">
<path d="M-24.1484 242.473L57.459 213.557C57.459 224.266 60.4577 233.691 66.4551 241.83C72.4525 249.969 78.4499 255.324 84.4473 257.895L93.4434 262.393V345.928C57.0306 345.928 25.9727 330.077 0.269531 298.377C-15.5807 278.243 -23.7201 259.608 -24.1484 242.473ZM-19.0078 17.5703C-19.0078 -29.5521 1.1263 -64.8939 41.3945 -88.4551C59.8151 -99.5931 77.1647 -105.376 93.4434 -105.805V-20.9844C82.7337 -17.9857 74.8086 -10.2747 69.668 2.14844C67.9544 6.00391 67.0977 10.0736 67.0977 14.3574C67.0977 31.9212 80.1634 46.9147 106.295 59.3379C111.864 61.9082 120.86 65.7637 133.283 70.9043C153.846 79.0436 168.411 85.6836 176.979 90.8242C211.678 111.387 234.811 132.378 246.377 153.797C254.945 170.504 259.229 189.139 259.229 209.701C259.229 248.684 244.449 282.098 214.891 309.943C189.616 333.933 160.914 345.928 128.785 345.928V262.393C145.492 260.251 157.273 251.469 164.127 236.047C167.126 229.193 168.625 221.696 168.625 213.557C168.625 191.709 152.346 173.717 119.789 159.58C113.792 157.01 104.367 153.368 91.5156 148.656C76.5221 143.516 66.0267 139.446 60.0293 136.447C23.1882 118.883 -0.373047 96.179 -10.6543 68.334C-16.2233 53.3405 -19.0078 36.4193 -19.0078 17.5703ZM128.785 -20.9844V-105.805C164.77 -105.805 194.971 -90.597 219.389 -60.1816C233.525 -42.1895 240.808 -25.9108 241.236 -11.3457L157.701 16.2852C157.701 -1.70703 148.919 -13.916 131.355 -20.3418C129.642 -20.7702 128.785 -20.9844 128.785 -20.9844ZM-17.7227 699.02C-17.7227 679.742 -9.36914 665.391 7.33789 655.967C14.6204 652.111 22.3314 650.184 30.4707 650.184C49.748 650.184 63.8848 658.537 72.8809 675.244C76.7363 682.527 78.6641 690.452 78.6641 699.02C78.6641 718.725 70.0964 732.862 52.9609 741.43C45.6784 745.285 38.1816 747.213 30.4707 747.213C10.765 747.213 -3.37174 738.645 -11.9395 721.51C-15.7949 714.227 -17.7227 706.73 -17.7227 699.02Z" fill="#2563EB" fill-opacity="0.1"/>
</svg>
